<svg id="Ebene_1" data-name="Ebene 1" xmlns="http://www.w3.org/2000/svg" viewBox="0 0 368.52 64.69"><defs><style>.cls-1{fill:#1b417d;fill-rule:evenodd;}</style></defs><title>test [Konvertiert]</title><path class="cls-1" d="M989.13,534.45H977.21c-.35-3.78,2.42-13-3-12.52a4.41,4.41,0,0,0-.89,2.39c-1.33,8.14-.69,19.55,0,28,.08,1,2.3,1,3.28,0,1.36-1.77.64-7.56.59-10.43h11.92c.13,21.92-14.57,23.44-23.84,16.39-4.85-3.7-4.94-31.71-3.28-36.66,2.54-7.51,15.46-10.19,23-4.76C989,519.82,989.25,527.35,989.13,534.45Z" transform="translate(-777.06 -507.34)"/><path class="cls-1" d="M914,515.08H926c.32,12.37-.64,25.66.3,37.84.2,0,.3.24.5.24.66.41,1.07-.07,1.88-.24,0-.2.42-.07.42-.27.45-10.58.46-25.48.18-37.57h11.62c0,9-.05,18.08,0,27.12,0,8.15-.2,17.14-10.43,18.77-14.65,2.22-16.42-9.33-16.39-20.26C914.06,532.16,914,523.62,914,515.08Z" transform="translate(-777.06 -507.34)"/><path class="cls-1" d="M945.33,515.08H957v45H945.33Z" transform="translate(-777.06 -507.34)"/><path class="cls-1" d="M993.24,515.08h11.62c.3,5.33-.58,11.58.3,16.69,1.69-5.57,2.59-9.84,5.07-16.69H1021v.59c-2.21,5.92-4.48,13-6.55,19.07,1.59,8.78,5.22,16.47,7.15,25.33h-11.92c-.74-6.29-3.18-12.67-4.77-18.47v18.47H993.24Z" transform="translate(-777.06 -507.34)"/><path class="cls-1" d="M1117.27,515.08h11.62c.3,5.33-.58,11.58.3,16.69l5.07-16.69H1145v.59c-2.21,5.92-4.48,13-6.55,19.07,1.59,8.78,5.22,16.47,7.15,25.33h-11.92c-.74-6.29-3.18-12.67-4.77-18.47v18.47h-11.62Z" transform="translate(-777.06 -507.34)"/><path class="cls-1" d="M867.55,533c-.41-3-.08-11.5-.67-12.59a6.92,6.92,0,0,0-2.61-.23c0-1.65.22-6.38.22-6.58-4.11-.7-6.71.57-7.37-5-12.85-3.94-26.84,2.75-34.67,9.13-8.45-6.16-22.62-11.95-34.46-9.13-1.43,6.65-1.73,3.13-7.16,5.07h0a35.85,35.85,0,0,0-.29,6.55l-2.69.3c-1.7,11.27,0,24.69-.59,36.36,0,3.14-.21,10.93.59,12.51,5.41.91,34.31.36,37.16,0,.83,3.22,13.52,4,15,0,12.14-.47,25.37.88,37.25-.3C868.17,557.43,867.24,544.74,867.55,533Zm-84,30.09c.58-15.37-1.07-32,.29-47.08l3.28-.3c0,14.17.33,32.34.69,45.44,6.84-1.05,15.74.53,22.4,2.67C802.14,563.6,791.61,562,783.52,563.05Zm37,2.69c-9.37-6.19-17-8.61-30.1-8,.57-15.28-1-31.77.3-46.78,12.67-.35,21.45,1.64,29.8,9.23Zm3.87.2v-45.8c5.32-5.59,18.93-10.89,27.42-9.23a8.6,8.6,0,0,1,2.68.29v46.49C840.44,557.75,824.54,565.94,824.34,565.94Zm36.95-2.89a265.41,265.41,0,0,0-28,.73c-.79,0,10.62-4,24.13-3.4h.33v-44.7a20.08,20.08,0,0,1,3.57.6Z" transform="translate(-777.06 -507.34)"/><path class="cls-1" d="M910.16,538.32c.13-17.68-1.76-25-16.68-24.14-11.3,2-10.32,12.14-10.43,21.76.38,13.56-1,24,11.32,24.13l.3,3c3.37,3.22,9,2.51,15.49,2.39v-5.37a63.21,63.21,0,0,1-6.85-.29l-.6-1.79C912.13,556.26,910.38,548,910.16,538.32ZM898,552.92c-.37.2-.67.06-1,.33-1.24-.06-1.31.06-2-.33-.51-6.69-.3-14.57-.3-21.75,0-3.12,0-7.72.26-9.24h2.76C898.08,530,898.31,543.78,898,552.92Z" transform="translate(-777.06 -507.34)"/><path class="cls-1" d="M1065.42,514.18c-11.56,1.37-10.54,12.42-10.73,22.65.46,14.07,1.16,25,16.09,24.14,12-2.77,11-10,11-25.33C1081.84,523.49,1080.8,513,1065.42,514.18Zm3.9,38.53c-.37.2-.37-.13-.65.14-1.24-.06-1.34.16-2.06-.22-.27-5.49-.3-14.58-.3-21.76,0-3,.06-6.23,0-8.94H1069C1069.18,530.81,1069.53,544.83,1069.32,552.71Z" transform="translate(-777.06 -507.34)"/><path class="cls-1" d="M1096.41,514.18c-11.56,1.37-10.78,11.25-10.73,22.65.65,16,1.16,25,16.1,24.14,12-2.77,11-10.25,11-25.33C1112.83,523.4,1111.79,513,1096.41,514.18Zm4.17,38.45a5.26,5.26,0,0,1-3,0c-.51-6.7-.29-14.58-.29-21.76,0-3-.31-6.92,0-8.94.85.06,3.43-.21,3.44,0,.07,1.15.18,4.91.18,7.45C1100.88,537,1100.72,545.52,1100.58,552.63Z" transform="translate(-777.06 -507.34)"/><path class="cls-1" d="M1044.26,535.94c1.58-1,3.61-1,4.77-2.68,4.66-17.75-8.08-19.85-25.33-18.18v45c7.2.14,22.8,1.26,25.63-2.68C1052,552,1053.16,536.08,1044.26,535.94Zm-8.94-13.11h2.09c1.55,0,1.21.73,1.49,1.19a39.64,39.64,0,0,1,0,6.26c-.53,2-1.64,2.36-3.58,2.38ZM1038,552a3.41,3.41,0,0,1-2.68.3V539.81c3.41,0,3.32.42,3.58.9C1039.17,543.8,1040.27,549.79,1038,552Z" transform="translate(-777.06 -507.34)"/></svg>